<svg xmlns="http://www.w3.org/2000/svg" xmlns:xlink="http://www.w3.org/1999/xlink" viewBox="0 0 520 520"
     width="520" height="520" preserveAspectRatio="xMidYMid meet"
     style="width: 100%; height: 100%; transform: translate3d(0px, 0px, 0px); content-visibility: visible;">
    <defs>
        <clipPath id="__lottie_element_179">
            <rect width="520" height="520" x="0" y="0"></rect>
        </clipPath>
        <g id="__lottie_element_180">
            <g clip-path="url(#__lottie_element_181)" transform="matrix(1,0,0,1,0,0)" opacity="1"
               style="display: block;">
                <g transform="matrix(1,0,0,1,416.89398193359375,195.4639892578125)" opacity="1"
                   style="display: block;">
                    <g opacity="1" transform="matrix(1,0,0,1,46.678001403808594,157.39300537109375)">
                        <path fill="rgb(221,221,221)" fill-opacity="1"
                              d=" M-46.428001403808594,-157.14300537109375 C-46.428001403808594,-157.14300537109375 46.428001403808594,-157.14300537109375 46.428001403808594,-157.14300537109375 C46.428001403808594,-157.14300537109375 46.428001403808594,157.14300537109375 46.428001403808594,157.14300537109375 C46.428001403808594,157.14300537109375 -46.428001403808594,157.14300537109375 -46.428001403808594,157.14300537109375 C-46.428001403808594,157.14300537109375 -46.428001403808594,-157.14300537109375 -46.428001403808594,-157.14300537109375z"></path>
                    </g>
                </g>
                <g transform="matrix(1,0,0,1,281.1789855957031,302.60601806640625)" opacity="1"
                   style="display: block;">
                    <g opacity="1" transform="matrix(1,0,0,1,46.678001403808594,103.8219985961914)">
                        <path fill="rgb(228,228,228)" fill-opacity="1"
                              d=" M-46.428001403808594,-103.5719985961914 C-46.428001403808594,-103.5719985961914 46.428001403808594,-103.5719985961914 46.428001403808594,-103.5719985961914 C46.428001403808594,-103.5719985961914 46.428001403808594,103.5719985961914 46.428001403808594,103.5719985961914 C46.428001403808594,103.5719985961914 -46.428001403808594,103.5719985961914 -46.428001403808594,103.5719985961914 C-46.428001403808594,103.5719985961914 -46.428001403808594,-103.5719985961914 -46.428001403808594,-103.5719985961914z"></path>
                    </g>
                </g>
                <g transform="matrix(1,0,0,1,145.46400451660156,195.4639892578125)" opacity="1"
                   style="display: block;">
                    <g opacity="1" transform="matrix(1,0,0,1,46.67900085449219,157.39300537109375)">
                        <path fill="rgb(212,212,212)" fill-opacity="1"
                              d=" M-46.42900085449219,-157.14300537109375 C-46.42900085449219,-157.14300537109375 46.42900085449219,-157.14300537109375 46.42900085449219,-157.14300537109375 C46.42900085449219,-157.14300537109375 46.42900085449219,157.14300537109375 46.42900085449219,157.14300537109375 C46.42900085449219,157.14300537109375 -46.42900085449219,157.14300537109375 -46.42900085449219,157.14300537109375 C-46.42900085449219,157.14300537109375 -46.42900085449219,-157.14300537109375 -46.42900085449219,-157.14300537109375z"></path>
                    </g>
                </g>
                <g transform="matrix(1,0,0,1,9.749000549316406,266.89398193359375)" opacity="1"
                   style="display: block;">
                    <g opacity="1" transform="matrix(1,0,0,1,46.67900085449219,121.6780014038086)">
                        <path fill="rgb(228,228,228)" fill-opacity="1"
                              d=" M-46.428001403808594,-121.4280014038086 C-46.428001403808594,-121.4280014038086 46.428001403808594,-121.4280014038086 46.428001403808594,-121.4280014038086 C46.428001403808594,-121.4280014038086 46.428001403808594,121.4280014038086 46.428001403808594,121.4280014038086 C46.428001403808594,121.4280014038086 -46.428001403808594,121.4280014038086 -46.428001403808594,121.4280014038086 C-46.428001403808594,121.4280014038086 -46.428001403808594,-121.4280014038086 -46.428001403808594,-121.4280014038086z"></path>
                    </g>
                </g>
                <g transform="matrix(1,0,0,1,9.75,9.75)" opacity="1" style="display: block;">
                    <g opacity="1" transform="matrix(1,0,0,1,250.25,98.46399688720703)">
                        <path fill="rgb(221,221,221)" fill-opacity="1"
                              d=" M-101.91200256347656,-3.1619999408721924 C-101.91200256347656,-3.1619999408721924 -167.87600708007812,29.827999114990234 -167.87600708007812,29.827999114990234 C-168.5399932861328,51.93000030517578 -186.6649932861328,69.64299774169922 -208.92799377441406,69.64299774169922 C-231.61199951171875,69.64299774169922 -250,51.25400161743164 -250,28.570999145507812 C-250,5.888000011444092 -231.61199951171875,-12.5 -208.92799377441406,-12.5 C-196.13099670410156,-12.5 -184.69900512695312,-6.645999908447266 -177.16700744628906,2.5290000438690186 C-177.16700744628906,2.5290000438690186 -110.65799713134766,-30.732999801635742 -110.65799713134766,-30.732999801635742 C-109.53399658203125,-52.4109992980957 -91.60099792480469,-69.64299774169922 -69.64299774169922,-69.64299774169922 C-46.959999084472656,-69.64299774169922 -28.570999145507812,-51.25400161743164 -28.570999145507812,-28.570999145507812 C-28.570999145507812,-27.47599983215332 -28.61400032043457,-26.391000747680664 -28.697999954223633,-25.316999435424805 C-28.697999954223633,-25.316999435424805 46.47700119018555,23.224000930786133 46.47700119018555,23.224000930786133 C53.071998596191406,18.711000442504883 61.04899978637695,16.070999145507812 69.64299774169922,16.070999145507812 C76.90499877929688,16.070999145507812 83.72599792480469,17.95599937438965 89.6449966430664,21.26300048828125 C89.6449966430664,21.26300048828125 169.0760040283203,-47.172000885009766 169.0760040283203,-47.172000885009766 C168.27999877929688,-50.36399841308594 167.85800170898438,-53.70399856567383 167.85800170898438,-57.143001556396484 C167.85800170898438,-79.82599639892578 186.2449951171875,-98.21399688720703 208.9290008544922,-98.21399688720703 C231.61199951171875,-98.21399688720703 250,-79.82599639892578 250,-57.143001556396484 C250,-34.459999084472656 231.61199951171875,-16.070999145507812 208.9290008544922,-16.070999145507812 C200.16299438476562,-16.070999145507812 192.03799438476562,-18.816999435424805 185.36900329589844,-23.496999740600586 C185.36900329589844,-23.496999740600586 108.20800018310547,42.981998443603516 108.20800018310547,42.981998443603516 C109.8290023803711,47.395999908447266 110.71399688720703,52.16699981689453 110.71399688720703,57.143001556396484 C110.71399688720703,79.82599639892578 92.32599639892578,98.21399688720703 69.64299774169922,98.21399688720703 C46.959999084472656,98.21399688720703 28.57200050354004,79.82599639892578 28.57200050354004,57.143001556396484 C28.57200050354004,53.48400115966797 29.049999237060547,49.9370002746582 29.947999954223633,46.56100082397461 C29.947999954223633,46.56100082397461 -40.92900085449219,0.7950000166893005 -40.92900085449219,0.7950000166893005 C-48.334999084472656,8.036999702453613 -58.46699905395508,12.5 -69.64299774169922,12.5 C-82.73200225830078,12.5 -94.39099884033203,6.376999855041504 -101.91200256347656,-3.1619999408721924z M-208.92799377441406,48.2140007019043 C-198.0800018310547,48.2140007019043 -189.28500366210938,39.41999816894531 -189.28500366210938,28.570999145507812 C-189.28500366210938,17.722999572753906 -198.0800018310547,8.928999900817871 -208.92799377441406,8.928999900817871 C-219.77699279785156,8.928999900817871 -228.5709991455078,17.722999572753906 -228.5709991455078,28.570999145507812 C-228.5709991455078,39.41999816894531 -219.77699279785156,48.2140007019043 -208.92799377441406,48.2140007019043z M-69.64299774169922,-8.928999900817871 C-58.79399871826172,-8.928999900817871 -50,-17.722999572753906 -50,-28.570999145507812 C-50,-39.41999816894531 -58.79399871826172,-48.2140007019043 -69.64299774169922,-48.2140007019043 C-80.49099731445312,-48.2140007019043 -89.28500366210938,-39.41999816894531 -89.28500366210938,-28.570999145507812 C-89.28500366210938,-17.722999572753906 -80.49099731445312,-8.928999900817871 -69.64299774169922,-8.928999900817871z M69.64299774169922,76.78600311279297 C80.49199676513672,76.78600311279297 89.28600311279297,67.99099731445312 89.28600311279297,57.143001556396484 C89.28600311279297,46.29399871826172 80.49199676513672,37.5 69.64299774169922,37.5 C58.79399871826172,37.5 50,46.29399871826172 50,57.143001556396484 C50,67.99099731445312 58.79399871826172,76.78600311279297 69.64299774169922,76.78600311279297z M208.9290008544922,-37.5 C219.7779998779297,-37.5 228.57200622558594,-46.29399871826172 228.57200622558594,-57.143001556396484 C228.57200622558594,-67.99099731445312 219.7779998779297,-76.78600311279297 208.9290008544922,-76.78600311279297 C198.0800018310547,-76.78600311279297 189.28599548339844,-67.99099731445312 189.28599548339844,-57.143001556396484 C189.28599548339844,-46.29399871826172 198.0800018310547,-37.5 208.9290008544922,-37.5z"></path>
                    </g>
                </g>
            </g>
        </g>
        <clipPath id="__lottie_element_181">
            <path d="M0,0 L520,0 L520,520 L0,520z"></path>
        </clipPath>
        <filter id="__lottie_element_201" x="-100%" y="-100%" width="300%" height="300%">
            <feGaussianBlur result="filter_result_0" stdDeviation="90 0" edgeMode="duplicate"></feGaussianBlur>
        </filter>
        <mask id="__lottie_element_180_1" mask-type="alpha">
            <use xlink:href="#__lottie_element_180"></use>
        </mask>
        <clipPath id="__lottie_element_203">
            <path d="M0,0 L520,0 L520,520 L0,520z"></path>
        </clipPath>
    </defs>
    <g clip-path="url(#__lottie_element_179)">
        <g clip-path="url(#__lottie_element_203)" transform="matrix(1,0,0,1,0,0)" opacity="1"
           style="display: block;">
            <g transform="matrix(1,0,0,1,416.89398193359375,195.4639892578125)" opacity="1"
               style="display: block;">
                <g opacity="1" transform="matrix(1,0,0,1,46.678001403808594,157.39300537109375)">
                    <path fill="rgb(221,221,221)" fill-opacity="1"
                          d=" M-46.428001403808594,-157.14300537109375 C-46.428001403808594,-157.14300537109375 46.428001403808594,-157.14300537109375 46.428001403808594,-157.14300537109375 C46.428001403808594,-157.14300537109375 46.428001403808594,157.14300537109375 46.428001403808594,157.14300537109375 C46.428001403808594,157.14300537109375 -46.428001403808594,157.14300537109375 -46.428001403808594,157.14300537109375 C-46.428001403808594,157.14300537109375 -46.428001403808594,-157.14300537109375 -46.428001403808594,-157.14300537109375z"></path>
                </g>
            </g>
            <g transform="matrix(1,0,0,1,281.1789855957031,302.60601806640625)" opacity="1"
               style="display: block;">
                <g opacity="1" transform="matrix(1,0,0,1,46.678001403808594,103.8219985961914)">
                    <path fill="rgb(228,228,228)" fill-opacity="1"
                          d=" M-46.428001403808594,-103.5719985961914 C-46.428001403808594,-103.5719985961914 46.428001403808594,-103.5719985961914 46.428001403808594,-103.5719985961914 C46.428001403808594,-103.5719985961914 46.428001403808594,103.5719985961914 46.428001403808594,103.5719985961914 C46.428001403808594,103.5719985961914 -46.428001403808594,103.5719985961914 -46.428001403808594,103.5719985961914 C-46.428001403808594,103.5719985961914 -46.428001403808594,-103.5719985961914 -46.428001403808594,-103.5719985961914z"></path>
                </g>
            </g>
            <g transform="matrix(1,0,0,1,145.46400451660156,195.4639892578125)" opacity="1"
               style="display: block;">
                <g opacity="1" transform="matrix(1,0,0,1,46.67900085449219,157.39300537109375)">
                    <path fill="rgb(212,212,212)" fill-opacity="1"
                          d=" M-46.42900085449219,-157.14300537109375 C-46.42900085449219,-157.14300537109375 46.42900085449219,-157.14300537109375 46.42900085449219,-157.14300537109375 C46.42900085449219,-157.14300537109375 46.42900085449219,157.14300537109375 46.42900085449219,157.14300537109375 C46.42900085449219,157.14300537109375 -46.42900085449219,157.14300537109375 -46.42900085449219,157.14300537109375 C-46.42900085449219,157.14300537109375 -46.42900085449219,-157.14300537109375 -46.42900085449219,-157.14300537109375z"></path>
                </g>
            </g>
            <g transform="matrix(1,0,0,1,9.749000549316406,266.89398193359375)" opacity="1"
               style="display: block;">
                <g opacity="1" transform="matrix(1,0,0,1,46.67900085449219,121.6780014038086)">
                    <path fill="rgb(228,228,228)" fill-opacity="1"
                          d=" M-46.428001403808594,-121.4280014038086 C-46.428001403808594,-121.4280014038086 46.428001403808594,-121.4280014038086 46.428001403808594,-121.4280014038086 C46.428001403808594,-121.4280014038086 46.428001403808594,121.4280014038086 46.428001403808594,121.4280014038086 C46.428001403808594,121.4280014038086 -46.428001403808594,121.4280014038086 -46.428001403808594,121.4280014038086 C-46.428001403808594,121.4280014038086 -46.428001403808594,-121.4280014038086 -46.428001403808594,-121.4280014038086z"></path>
                </g>
            </g>
            <g transform="matrix(1,0,0,1,9.75,9.75)" opacity="1" style="display: block;">
                <g opacity="1" transform="matrix(1,0,0,1,250.25,98.46399688720703)">
                    <path fill="rgb(221,221,221)" fill-opacity="1"
                          d=" M-101.91200256347656,-3.1619999408721924 C-101.91200256347656,-3.1619999408721924 -167.87600708007812,29.827999114990234 -167.87600708007812,29.827999114990234 C-168.5399932861328,51.93000030517578 -186.6649932861328,69.64299774169922 -208.92799377441406,69.64299774169922 C-231.61199951171875,69.64299774169922 -250,51.25400161743164 -250,28.570999145507812 C-250,5.888000011444092 -231.61199951171875,-12.5 -208.92799377441406,-12.5 C-196.13099670410156,-12.5 -184.69900512695312,-6.645999908447266 -177.16700744628906,2.5290000438690186 C-177.16700744628906,2.5290000438690186 -110.65799713134766,-30.732999801635742 -110.65799713134766,-30.732999801635742 C-109.53399658203125,-52.4109992980957 -91.60099792480469,-69.64299774169922 -69.64299774169922,-69.64299774169922 C-46.959999084472656,-69.64299774169922 -28.570999145507812,-51.25400161743164 -28.570999145507812,-28.570999145507812 C-28.570999145507812,-27.47599983215332 -28.61400032043457,-26.391000747680664 -28.697999954223633,-25.316999435424805 C-28.697999954223633,-25.316999435424805 46.47700119018555,23.224000930786133 46.47700119018555,23.224000930786133 C53.071998596191406,18.711000442504883 61.04899978637695,16.070999145507812 69.64299774169922,16.070999145507812 C76.90499877929688,16.070999145507812 83.72599792480469,17.95599937438965 89.6449966430664,21.26300048828125 C89.6449966430664,21.26300048828125 169.0760040283203,-47.172000885009766 169.0760040283203,-47.172000885009766 C168.27999877929688,-50.36399841308594 167.85800170898438,-53.70399856567383 167.85800170898438,-57.143001556396484 C167.85800170898438,-79.82599639892578 186.2449951171875,-98.21399688720703 208.9290008544922,-98.21399688720703 C231.61199951171875,-98.21399688720703 250,-79.82599639892578 250,-57.143001556396484 C250,-34.459999084472656 231.61199951171875,-16.070999145507812 208.9290008544922,-16.070999145507812 C200.16299438476562,-16.070999145507812 192.03799438476562,-18.816999435424805 185.36900329589844,-23.496999740600586 C185.36900329589844,-23.496999740600586 108.20800018310547,42.981998443603516 108.20800018310547,42.981998443603516 C109.8290023803711,47.395999908447266 110.71399688720703,52.16699981689453 110.71399688720703,57.143001556396484 C110.71399688720703,79.82599639892578 92.32599639892578,98.21399688720703 69.64299774169922,98.21399688720703 C46.959999084472656,98.21399688720703 28.57200050354004,79.82599639892578 28.57200050354004,57.143001556396484 C28.57200050354004,53.48400115966797 29.049999237060547,49.9370002746582 29.947999954223633,46.56100082397461 C29.947999954223633,46.56100082397461 -40.92900085449219,0.7950000166893005 -40.92900085449219,0.7950000166893005 C-48.334999084472656,8.036999702453613 -58.46699905395508,12.5 -69.64299774169922,12.5 C-82.73200225830078,12.5 -94.39099884033203,6.376999855041504 -101.91200256347656,-3.1619999408721924z M-208.92799377441406,48.2140007019043 C-198.0800018310547,48.2140007019043 -189.28500366210938,39.41999816894531 -189.28500366210938,28.570999145507812 C-189.28500366210938,17.722999572753906 -198.0800018310547,8.928999900817871 -208.92799377441406,8.928999900817871 C-219.77699279785156,8.928999900817871 -228.5709991455078,17.722999572753906 -228.5709991455078,28.570999145507812 C-228.5709991455078,39.41999816894531 -219.77699279785156,48.2140007019043 -208.92799377441406,48.2140007019043z M-69.64299774169922,-8.928999900817871 C-58.79399871826172,-8.928999900817871 -50,-17.722999572753906 -50,-28.570999145507812 C-50,-39.41999816894531 -58.79399871826172,-48.2140007019043 -69.64299774169922,-48.2140007019043 C-80.49099731445312,-48.2140007019043 -89.28500366210938,-39.41999816894531 -89.28500366210938,-28.570999145507812 C-89.28500366210938,-17.722999572753906 -80.49099731445312,-8.928999900817871 -69.64299774169922,-8.928999900817871z M69.64299774169922,76.78600311279297 C80.49199676513672,76.78600311279297 89.28600311279297,67.99099731445312 89.28600311279297,57.143001556396484 C89.28600311279297,46.29399871826172 80.49199676513672,37.5 69.64299774169922,37.5 C58.79399871826172,37.5 50,46.29399871826172 50,57.143001556396484 C50,67.99099731445312 58.79399871826172,76.78600311279297 69.64299774169922,76.78600311279297z M208.9290008544922,-37.5 C219.7779998779297,-37.5 228.57200622558594,-46.29399871826172 228.57200622558594,-57.143001556396484 C228.57200622558594,-67.99099731445312 219.7779998779297,-76.78600311279297 208.9290008544922,-76.78600311279297 C198.0800018310547,-76.78600311279297 189.28599548339844,-67.99099731445312 189.28599548339844,-57.143001556396484 C189.28599548339844,-46.29399871826172 198.0800018310547,-37.5 208.9290008544922,-37.5z"></path>
                </g>
            </g>
        </g>
        <g mask="url(#__lottie_element_180_1)" style="display: block;">
            <g filter="url(#__lottie_element_201)" transform="matrix(0.20000000298023224,0,0,1,528,-10)"
               opacity="0.3">
                <rect width="520" height="520" fill="#ffffff"></rect>
            </g>
        </g>
    </g>
</svg>